<?xml version="1.0" encoding="UTF-8" standalone="no"?>
<!DOCTYPE svg PUBLIC "-//W3C//DTD SVG 1.1//EN" "http://www.w3.org/Graphics/SVG/1.1/DTD/svg11.dtd">
<svg width="100%" height="100%" viewBox="0 0 350 47" version="1.1" xmlns="http://www.w3.org/2000/svg" xmlns:xlink="http://www.w3.org/1999/xlink" xml:space="preserve" xmlns:serif="http://www.serif.com/" style="fill-rule:evenodd;clip-rule:evenodd;stroke-linejoin:round;stroke-miterlimit:2;">
    <g transform="matrix(1,0,0,1,-279.178125,-2544.797656)">
        <g>
            <path d="M290.165,2581.377C287.952,2581.377 285.851,2581.078 283.863,2580.482C281.875,2579.886 280.314,2579.155 279.178,2578.291L281.213,2574.493C282.344,2575.28 283.743,2575.938 285.409,2576.467C287.076,2576.995 288.774,2577.259 290.502,2577.259C292.724,2577.259 294.333,2576.937 295.329,2576.293C296.324,2575.649 296.822,2574.772 296.822,2573.663C296.822,2572.824 296.519,2572.173 295.914,2571.71C295.309,2571.246 294.51,2570.893 293.516,2570.651C292.523,2570.408 291.428,2570.198 290.231,2570.021C289.035,2569.844 287.839,2569.615 286.642,2569.334C285.446,2569.054 284.351,2568.651 283.357,2568.125C282.363,2567.599 281.564,2566.877 280.959,2565.956C280.353,2565.036 280.051,2563.817 280.051,2562.299C280.051,2560.71 280.501,2559.317 281.402,2558.12C282.303,2556.923 283.576,2555.993 285.221,2555.332C286.867,2554.671 288.827,2554.34 291.102,2554.34C292.842,2554.34 294.601,2554.553 296.379,2554.98C298.157,2555.408 299.614,2555.993 300.749,2556.737L298.713,2560.534C297.511,2559.757 296.259,2559.217 294.958,2558.913C293.656,2558.609 292.357,2558.457 291.059,2558.457C288.958,2558.457 287.392,2558.796 286.362,2559.473C285.332,2560.151 284.817,2561.022 284.817,2562.088C284.817,2562.989 285.12,2563.68 285.725,2564.163C286.33,2564.645 287.13,2565.023 288.123,2565.296C289.117,2565.57 290.211,2565.795 291.408,2565.972C292.604,2566.149 293.799,2566.378 294.993,2566.659C296.187,2566.939 297.28,2567.334 298.274,2567.843C299.268,2568.352 300.067,2569.057 300.673,2569.958C301.278,2570.86 301.58,2572.052 301.58,2573.537C301.58,2575.146 301.118,2576.537 300.193,2577.708C299.267,2578.88 297.956,2579.784 296.257,2580.421C294.559,2581.058 292.528,2581.377 290.165,2581.377Z" style="fill:rgb(1,45,237);fill-rule:nonzero;"/>
            <path d="M318.934,2581.377C316.293,2581.377 313.936,2580.797 311.863,2579.638C309.791,2578.479 308.155,2576.878 306.957,2574.833C305.758,2572.788 305.159,2570.46 305.159,2567.848C305.159,2565.201 305.761,2562.867 306.965,2560.846C308.169,2558.824 309.801,2557.234 311.862,2556.077C313.923,2554.919 316.28,2554.34 318.934,2554.34C321.587,2554.34 323.953,2554.918 326.033,2556.074C328.112,2557.23 329.744,2558.817 330.93,2560.835C332.115,2562.853 332.708,2565.191 332.708,2567.848C332.708,2570.47 332.117,2572.801 330.935,2574.841C329.754,2576.88 328.118,2578.479 326.028,2579.638C323.938,2580.797 321.573,2581.377 318.934,2581.377ZM318.934,2577.175C320.655,2577.175 322.187,2576.792 323.528,2576.026C324.87,2575.26 325.928,2574.172 326.703,2572.761C327.478,2571.35 327.866,2569.713 327.866,2567.849C327.866,2565.96 327.478,2564.318 326.703,2562.923C325.928,2561.529 324.87,2560.45 323.528,2559.686C322.187,2558.923 320.662,2558.541 318.955,2558.541C317.248,2558.541 315.724,2558.923 314.385,2559.686C313.046,2560.45 311.98,2561.529 311.189,2562.923C310.397,2564.318 310.002,2565.96 310.002,2567.849C310.002,2569.713 310.397,2571.35 311.189,2572.761C311.98,2574.172 313.045,2575.26 314.382,2576.026C315.719,2576.792 317.236,2577.175 318.934,2577.175Z" style="fill:rgb(1,45,237);fill-rule:nonzero;"/>
            <path d="M339.385,2581.1L339.385,2554.616L343.974,2554.616L343.974,2561.663L343.198,2559.866C344.044,2558.112 345.334,2556.752 347.069,2555.787C348.804,2554.822 350.824,2554.34 353.13,2554.34C355.656,2554.34 357.835,2554.966 359.667,2556.217C361.499,2557.469 362.702,2559.358 363.276,2561.884L361.31,2561.116C362.112,2559.086 363.512,2557.45 365.508,2556.206C367.503,2554.962 369.836,2554.34 372.506,2554.34C374.657,2554.34 376.546,2554.755 378.172,2555.586C379.799,2556.417 381.07,2557.681 381.985,2559.38C382.901,2561.079 383.358,2563.235 383.358,2565.85L383.358,2581.1L378.558,2581.1L378.558,2566.399C378.558,2563.818 377.963,2561.878 376.774,2560.577C375.585,2559.276 373.897,2558.626 371.711,2558.626C370.131,2558.626 368.739,2558.964 367.535,2559.642C366.332,2560.319 365.404,2561.307 364.751,2562.605C364.098,2563.903 363.772,2565.511 363.772,2567.43L363.772,2581.1L358.971,2581.1L358.971,2566.399C358.971,2563.818 358.376,2561.878 357.187,2560.577C355.998,2559.276 354.311,2558.626 352.125,2558.626C350.544,2558.626 349.152,2558.964 347.949,2559.642C346.745,2560.319 345.817,2561.307 345.164,2562.605C344.511,2563.903 344.185,2565.511 344.185,2567.43L344.185,2581.1L339.385,2581.1Z" style="fill:rgb(1,45,237);fill-rule:nonzero;"/>
            <path d="M401.334,2581.377C398.654,2581.377 396.583,2580.667 395.122,2579.246C393.662,2577.826 392.931,2575.772 392.931,2573.084L392.931,2544.798L397.731,2544.798L397.731,2572.919C397.731,2574.33 398.09,2575.42 398.807,2576.19C399.524,2576.96 400.552,2577.345 401.891,2577.345C403.372,2577.345 404.608,2576.938 405.6,2576.124L407.102,2579.569C406.39,2580.174 405.519,2580.627 404.49,2580.927C403.461,2581.227 402.409,2581.377 401.334,2581.377ZM388.396,2558.565L388.396,2554.616L405.341,2554.616L405.341,2558.565L388.396,2558.565Z" style="fill:rgb(1,45,237);fill-rule:nonzero;"/>
            <path d="M412.945,2581.1L412.945,2544.798L417.745,2544.798L417.745,2561.755L416.758,2559.874C417.637,2558.114 418.975,2556.752 420.772,2555.787C422.568,2554.822 424.669,2554.34 427.075,2554.34C429.236,2554.34 431.14,2554.755 432.786,2555.586C434.432,2556.417 435.729,2557.681 436.678,2559.38C437.626,2561.079 438.1,2563.235 438.1,2565.85L438.1,2581.1L433.3,2581.1L433.3,2566.399C433.3,2563.818 432.674,2561.878 431.42,2560.577C430.167,2559.276 428.397,2558.626 426.111,2558.626C424.436,2558.626 422.964,2558.964 421.697,2559.642C420.429,2560.319 419.454,2561.307 418.77,2562.605C418.087,2563.903 417.745,2565.511 417.745,2567.43L417.745,2581.1L412.945,2581.1Z" style="fill:rgb(1,45,237);fill-rule:nonzero;"/>
            <rect x="446.96" y="2554.6" width="4.8" height="26.5" style="fill:rgb(1,45,237);fill-rule:nonzero;"/>
            <g transform="matrix(1.380182,0,0,1.380182,-170.426365,-967.486746)">
                <circle cx="449.062" cy="2546.899" r="2.101" style="fill:rgb(1,45,237);"/>
            </g>
            <path d="M460.914,2581.1L460.914,2554.616L465.503,2554.616L465.503,2561.755L464.727,2559.874C465.606,2558.114 466.944,2556.752 468.741,2555.787C470.537,2554.822 472.638,2554.34 475.044,2554.34C477.205,2554.34 479.109,2554.755 480.755,2555.586C482.401,2556.417 483.698,2557.681 484.647,2559.38C485.595,2561.079 486.069,2563.235 486.069,2565.85L486.069,2581.1L481.269,2581.1L481.269,2566.399C481.269,2563.818 480.643,2561.878 479.389,2560.577C478.136,2559.276 476.366,2558.626 474.08,2558.626C472.405,2558.626 470.933,2558.964 469.666,2559.642C468.398,2560.319 467.423,2561.307 466.739,2562.605C466.056,2563.903 465.714,2565.511 465.714,2567.43L465.714,2581.1L460.914,2581.1Z" style="fill:rgb(1,45,237);fill-rule:nonzero;"/>
            <path d="M506.529,2591.077C504.112,2591.077 501.759,2590.742 499.473,2590.074C497.186,2589.406 495.314,2588.434 493.855,2587.157L496.201,2583.459C497.422,2584.505 498.935,2585.337 500.74,2585.952C502.546,2586.567 504.419,2586.875 506.361,2586.875C509.503,2586.875 511.811,2586.146 513.284,2584.689C514.758,2583.232 515.495,2581.01 515.495,2578.021L515.495,2572.381L515.995,2567.143L515.706,2561.863L515.706,2554.616L520.295,2554.616L520.295,2577.491C520.295,2582.164 519.127,2585.597 516.792,2587.789C514.457,2589.981 511.036,2591.077 506.529,2591.077ZM505.948,2579.997C503.379,2579.997 501.08,2579.455 499.051,2578.372C497.022,2577.289 495.421,2575.783 494.248,2573.855C493.075,2571.927 492.488,2569.689 492.488,2567.143C492.488,2564.592 493.075,2562.354 494.248,2560.428C495.421,2558.503 497.022,2557.007 499.051,2555.94C501.08,2554.873 503.379,2554.34 505.948,2554.34C508.213,2554.34 510.273,2554.803 512.128,2555.729C513.983,2556.655 515.473,2558.067 516.599,2559.964C517.724,2561.861 518.287,2564.254 518.287,2567.143C518.287,2570.027 517.724,2572.419 516.599,2574.319C515.473,2576.219 513.983,2577.64 512.128,2578.583C510.273,2579.526 508.213,2579.997 505.948,2579.997ZM506.455,2575.795C508.243,2575.795 509.822,2575.43 511.192,2574.7C512.562,2573.97 513.636,2572.954 514.413,2571.652C515.191,2570.35 515.579,2568.847 515.579,2567.143C515.579,2565.434 515.191,2563.931 514.413,2562.634C513.636,2561.338 512.562,2560.331 511.192,2559.615C509.822,2558.899 508.243,2558.541 506.455,2558.541C504.7,2558.541 503.13,2558.899 501.743,2559.615C500.356,2560.331 499.274,2561.338 498.497,2562.634C497.72,2563.931 497.331,2565.434 497.331,2567.143C497.331,2568.847 497.72,2570.35 498.497,2571.652C499.274,2572.954 500.356,2573.97 501.743,2574.7C503.13,2575.43 504.7,2575.795 506.455,2575.795Z" style="fill:rgb(1,45,237);fill-rule:nonzero;"/>
            <path d="M529.431,2581.1L529.431,2554.616L534.02,2554.616L534.02,2561.809L533.539,2560.012C534.296,2558.167 535.535,2556.761 537.257,2555.793C538.978,2554.824 541.114,2554.34 543.663,2554.34L543.663,2559.013C543.461,2558.985 543.271,2558.964 543.094,2558.95C542.918,2558.936 542.74,2558.929 542.56,2558.929C539.995,2558.929 537.966,2559.695 536.472,2561.229C534.978,2562.762 534.231,2564.991 534.231,2567.918L534.231,2581.1L529.431,2581.1Z" style="fill:rgb(1,45,237);fill-rule:nonzero;"/>
            <path d="M561.124,2581.377C558.286,2581.377 555.795,2580.797 553.651,2579.638C551.506,2578.479 549.841,2576.88 548.653,2574.841C547.466,2572.801 546.873,2570.472 546.873,2567.855C546.873,2565.232 547.446,2562.903 548.592,2560.868C549.738,2558.834 551.318,2557.237 553.331,2556.078C555.345,2554.919 557.626,2554.34 560.174,2554.34C562.722,2554.34 564.982,2554.91 566.953,2556.049C568.925,2557.189 570.471,2558.782 571.591,2560.828C572.712,2562.874 573.272,2565.259 573.272,2567.984C573.272,2568.186 573.265,2568.424 573.251,2568.696C573.237,2568.969 573.216,2569.223 573.187,2569.459L550.632,2569.459L550.632,2565.976L570.653,2565.976L568.733,2567.19C568.761,2565.486 568.404,2563.974 567.663,2562.652C566.921,2561.331 565.909,2560.294 564.625,2559.543C563.34,2558.791 561.857,2558.415 560.174,2558.415C558.497,2558.415 557.007,2558.791 555.707,2559.543C554.406,2560.294 553.393,2561.338 552.668,2562.673C551.944,2564.009 551.581,2565.557 551.581,2567.316L551.581,2568.108C551.581,2569.883 551.985,2571.455 552.793,2572.824C553.601,2574.193 554.737,2575.26 556.199,2576.026C557.661,2576.792 559.345,2577.175 561.251,2577.175C562.815,2577.175 564.246,2576.912 565.543,2576.386C566.839,2575.861 567.962,2575.058 568.911,2573.977L571.553,2577.084C570.363,2578.484 568.879,2579.55 567.1,2580.28C565.32,2581.011 563.328,2581.377 561.124,2581.377Z" style="fill:rgb(1,45,237);fill-rule:nonzero;"/>
            <path d="M590.884,2581.377C588.32,2581.377 586.025,2580.811 583.999,2579.68C581.972,2578.55 580.381,2576.972 579.224,2574.946C578.068,2572.921 577.489,2570.557 577.489,2567.855C577.489,2565.147 578.068,2562.783 579.224,2560.762C580.381,2558.742 581.972,2557.167 583.999,2556.036C586.025,2554.905 588.32,2554.34 590.884,2554.34C593.11,2554.34 595.128,2554.842 596.939,2555.846C598.749,2556.85 600.196,2558.348 601.279,2560.341C602.363,2562.333 602.904,2564.838 602.904,2567.855C602.904,2570.838 602.377,2573.336 601.321,2575.347C600.266,2577.359 598.833,2578.867 597.023,2579.871C595.213,2580.875 593.166,2581.377 590.884,2581.377ZM591.264,2577.175C592.958,2577.175 594.475,2576.792 595.817,2576.026C597.158,2575.26 598.224,2574.172 599.013,2572.761C599.802,2571.35 600.196,2569.715 600.196,2567.855C600.196,2565.961 599.802,2564.318 599.013,2562.923C598.224,2561.529 597.158,2560.45 595.817,2559.686C594.475,2558.923 592.958,2558.541 591.264,2558.541C589.571,2558.541 588.055,2558.923 586.716,2559.686C585.376,2560.45 584.311,2561.529 583.519,2562.923C582.728,2564.318 582.332,2565.961 582.332,2567.855C582.332,2569.715 582.728,2571.35 583.519,2572.761C584.311,2574.172 585.376,2575.26 586.716,2576.026C588.055,2576.792 589.571,2577.175 591.264,2577.175ZM600.323,2581.1L600.323,2573.965L600.612,2567.805L600.112,2561.645L600.112,2554.616L604.912,2554.616L604.912,2581.1L600.323,2581.1Z" style="fill:rgb(1,45,237);fill-rule:nonzero;"/>
            <path d="M623.146,2581.377C620.465,2581.377 618.395,2580.667 616.934,2579.246C615.473,2577.826 614.743,2575.772 614.743,2573.084L614.743,2544.798L619.543,2544.798L619.543,2572.919C619.543,2574.33 619.902,2575.42 620.619,2576.19C621.336,2576.96 622.364,2577.345 623.703,2577.345C625.183,2577.345 626.42,2576.938 627.412,2576.124L628.914,2579.569C628.202,2580.174 627.331,2580.627 626.302,2580.927C625.272,2581.227 624.221,2581.377 623.146,2581.377ZM610.208,2558.565L610.208,2554.616L627.153,2554.616L627.153,2558.565L610.208,2558.565Z" style="fill:rgb(1,45,237);fill-rule:nonzero;"/>
        </g>
    </g>
</svg>
